<?xml version="1.0" encoding="utf-8"?>
<!-- Generator: Adobe Illustrator 22.0.0, SVG Export Plug-In . SVG Version: 6.00 Build 0)  -->
<svg version="1.1" id="Layer_1" xmlns="http://www.w3.org/2000/svg" xmlns:xlink="http://www.w3.org/1999/xlink" x="0px" y="0px"
	 width="352px" height="100px" viewBox="0 0 352 100" style="enable-background:new 0 0 352 100;" xml:space="preserve">
<style type="text/css">
	.st0{fill:#FFFDFD;}
	.st1{fill:#FFFFFF;}
	.st2{fill:#F05A28;}
</style>
<g>
	<path class="st0" d="M159.6,5.6c2.9,0,5.9,1.8,5.9,5.3s-3,5.3-5.9,5.3c-3,0-6-1.8-6-5.3S156.6,5.6,159.6,5.6z"/>
	<g>
		<path class="st1" d="M150.4,7.1l-16.3,19c5.6,6.2,12.1,13.4,17.7,19.8v0.7h-14.1l-11.5-13.4v13.4h-11.4V6.4h11.4v13.2
			c3.4-4.2,7.2-9,10.6-13.2h13.6V7.1z"/>
		<rect x="154.2" y="18.7" class="st1" width="10.6" height="27.9"/>
		<path class="st1" d="M209.2,46.5h-12.5l-9.4-13h-4v13H172V6.4h19.6c10.3,0,15.6,6.6,15.6,13.8c0,4.9-1.7,9.1-8.5,12.1l10.4,13.5
			L209.2,46.5L209.2,46.5z M183.4,15.4V25h8.4c3,0,4.3-2.2,4.3-4.6c0-2.5-1.4-5-4.4-5H183.4z"/>
		<path class="st1" d="M242,39.9h-18l-2.6,6.6h-12l18-40.2h11.5l18,40.2h-12.2L242,39.9z M233.1,17.6l-5.2,12.8h10.3L233.1,17.6z"/>
		<path class="st1" d="M271.4,6.4v30.5h19.2v9.6H260V6.4H271.4z"/>
		<path class="st1" d="M295.6,46.5V6.4h11.3v40.2h-11.3V46.5z"/>
		<path class="st1" d="M350.6,7.1l-16.3,19c5.6,6.2,12.1,13.4,17.7,19.8v0.7h-14.1l-11.5-13.4v13.4H315V6.4h11.4v13.2
			c3.4-4.2,7.2-9,10.6-13.2h13.6L350.6,7.1L350.6,7.1z"/>
	</g>
	<path class="st0" d="M119.2,53.3c2.9,0,5.9,1.8,5.9,5.3s-3,5.3-5.9,5.3c-3,0-6-1.8-6-5.3C113.3,55.1,116.2,53.3,119.2,53.3z"/>
	<g>
		<rect x="113.9" y="66.4" class="st1" width="10.6" height="27.9"/>
		<path class="st1" d="M156.1,65.3c-2.8-2.1-5.9-2.8-9.4-2.8c-2.8,0-5.5,0.9-5.5,3c0,2.8,2.7,3.2,6.7,3.6c8,0.9,16.3,4.1,16.3,13.3
			c0,9.1-8.6,13-17.6,13.1c-7.2,0.1-12.4-1.2-18-7.1l6.3-7.2c4,3.8,8.4,4.5,11.8,4.5c3.7,0,6.3-1.3,6.3-3.6c0-2-2.3-3.3-6.7-3.7
			c-8.8-0.8-16.4-3-16.4-13c0-8.5,8.3-12.2,16.8-12.2c6,0,10.7,1.4,15,4.8L156.1,65.3z"/>
		<path class="st1" d="M205.1,54.8l-16.3,19c5.6,6.2,12.1,13.4,17.7,19.8v0.7h-14.1L181,80.9v13.4h-11.4V54.1H181v13.2
			c3.4-4.2,7.2-9,10.6-13.2h13.6v0.7H205.1z"/>
		<path class="st1" d="M242.1,94.3H210V54.1h31.3v9.5h-20.1v5.7h19v9.2h-19v6.1h20.9L242.1,94.3L242.1,94.3z"/>
		<path class="st1" d="M259.9,54.1v30.5h19.2v9.6h-30.6V54.1H259.9z"/>
		<path class="st1" d="M316.2,94.3h-32.1V54.1h31.3v9.5h-20.1v5.7h19v9.2h-19v6.1h20.9L316.2,94.3L316.2,94.3z"/>
	</g>
	<path class="st0" d="M326.6,84.4c7.7,0,7.6,10.4,0,10.4C319.1,94.8,319,84.4,326.6,84.4z"/>
	<path class="st1" d="M85.8,100H14.2C6.3,100,0,93.7,0,85.8V0h85.8C93.7,0,100,6.3,100,14.2v71.7C100,93.7,93.7,100,85.8,100z"/>
	<g>
		<path class="st2" d="M52.8,69.8H40.5L31.3,57h-3.9v12.8h-5.2c-3.3,0-6-2.7-6-6V30.2h19.3c10.1,0,15.4,6.5,15.4,13.6
			c0,4.9-1.7,9-7.7,12.6l10.3,13.3L52.8,69.8L52.8,69.8z M27.4,39.2v9.5h8.2c2.9,0,4.2-2.2,4.2-4.6c0-2.5-1.4-4.9-4.3-4.9H27.4z"/>
		<path class="st2" d="M77.7,69.8H53V30.2h24.7c3.3,0,6,2.7,6,6v3.4H64v5.6h19.7v9.1H64v6h19.7v3.4C83.7,67.1,81.1,69.8,77.7,69.8z"
			/>
	</g>
</g>
</svg>
