<?xml version="1.0" encoding="utf-8"?>
<!-- Generator: Adobe Illustrator 22.1.0, SVG Export Plug-In . SVG Version: 6.00 Build 0)  -->
<svg version="1.1" id="Layer_1" xmlns="http://www.w3.org/2000/svg" xmlns:xlink="http://www.w3.org/1999/xlink" x="0px" y="0px"
	 viewBox="0 0 380 132.3" style="enable-background:new 0 0 380 132.3;" xml:space="preserve">
<style type="text/css">
	.st0{fill:#6D6E70;}
	.st1{fill:#F05A28;}
	.st2{fill:#808184;}
</style>
<g>
	<g>
		<path class="st0" d="M5.7,124.7c0.2,0,0.4,0.1,0.6,0.1c0.9,0,1.3-0.4,1.3-1.3v-3.1c0-0.9-0.5-1.4-1.6-1.4H4.7v13.1H1.8v-15.6H6
			c1.5,0,2.6,0.4,3.3,1.1c0.8,0.7,1.1,1.7,1.1,2.9v3c0,1.2-0.3,2.2-0.9,2.9s-1.5,1-2.7,1c-0.3,0-0.7,0-1.2-0.1V124.7z"/>
		<path class="st0" d="M15.7,126.4h-1.2v5.7h-2.9v-15.6h4.2c1.5,0,2.6,0.4,3.3,1.1c0.8,0.7,1.1,1.7,1.1,2.9v2.1
			c0,1.6-0.6,2.7-1.9,3.4l2.3,6.2h-3.2L15.7,126.4z M14.5,123.9h1.3c1.1,0,1.6-0.5,1.6-1.4v-2c0-0.9-0.5-1.4-1.6-1.4h-1.3V123.9z"/>
		<path class="st0" d="M27.6,128.3h-3.2l-0.8,3.8h-2.9l3.3-15.6h3.8l3.3,15.6h-2.9L27.6,128.3z M27.1,125.8l-0.1-0.4
			c-0.6-2.9-0.9-5-1-6.1c-0.1,1.4-0.5,3.4-1,6.1l-0.1,0.4H27.1z"/>
		<path class="st0" d="M39.4,119h-2.8v13.1h-2.9V119h-2.8v-2.5h8.6V119z"/>
		<path class="st0" d="M43.2,114c0,1-0.5,1.5-1.6,1.5c-1.1,0-1.6-0.5-1.6-1.5c0-1,0.5-1.6,1.6-1.6C42.6,112.4,43.2,113,43.2,114z
			 M40.1,132.1v-15.6H43v15.6H40.1z"/>
		<path class="st0" d="M47.7,116.5v15.6h-2.9v-15.6H47.7z M54.2,116.5l-3.3,7.5l3.6,8h-3.3l-3.3-8l3.2-7.6H54.2z"/>
		<path class="st0" d="M60.9,114c0,1-0.5,1.5-1.6,1.5c-1.1,0-1.6-0.5-1.6-1.5c0-1,0.5-1.6,1.6-1.6C60.4,112.4,60.9,113,60.9,114z
			 M57.8,132.1v-15.6h2.9v15.6H57.8z"/>
		<path class="st0" d="M64.1,124.5c-1.4-0.9-2.2-2.2-2.2-3.8v-0.5c0-1.2,0.4-2.2,1.1-2.9c0.7-0.7,1.8-1,3.3-1s2.6,0.3,3.3,1
			c0.7,0.7,1.1,1.6,1.1,2.9v1.1h-2.9v-1c0-0.9-0.5-1.4-1.5-1.4c-0.5,0-0.9,0.1-1.1,0.4c-0.2,0.2-0.3,0.6-0.3,1v0.3
			c0,0.4,0.1,0.7,0.3,1c0.2,0.3,0.5,0.6,1,0.9l2.6,1.7c0.7,0.5,1.2,1,1.6,1.6c0.3,0.6,0.5,1.3,0.5,2.1v0.6c0,1.2-0.4,2.1-1.1,2.8
			c-0.8,0.7-1.9,1-3.3,1s-2.6-0.3-3.3-1c-0.7-0.7-1.1-1.6-1.1-2.8v-1.2h2.9v1c0,0.9,0.5,1.4,1.5,1.4c1.1,0,1.6-0.5,1.6-1.4V128
			c0-0.4-0.1-0.7-0.2-1c-0.2-0.3-0.5-0.5-0.9-0.8L64.1,124.5z"/>
		<path class="st0" d="M74.8,116.5v15.6h-2.9v-15.6H74.8z M81.3,116.5l-3.3,7.5l3.6,8h-3.3l-3.3-8l3.2-7.6H81.3z"/>
		<path class="st0" d="M89.7,132.1h-7.6v-15.6h7.6v2.5H85v3.9H89v2.5H85v4.1h4.7V132.1z"/>
		<path class="st0" d="M98,132.1h-7.2v-15.6h2.9v13.1H98V132.1z"/>
		<path class="st0" d="M106.2,132.1h-7.6v-15.6h7.6v2.5h-4.7v3.9h4.1v2.5h-4.1v4.1h4.7V132.1z"/>
		<path class="st0" d="M111.5,126c-0.4-1-0.7-1.9-1-2.8c-0.3-0.9-0.5-1.5-0.6-1.8l-0.2-0.6c0.3,1.3,0.5,3.3,0.5,6.1v5.2h-2.8v-15.6
			h2.9l2.4,6c0.4,1,0.8,2,1.1,2.8s0.5,1.5,0.6,1.8l0.1,0.5c-0.3-1.2-0.5-3.2-0.5-6.1v-5h2.9v15.6h-2.9L111.5,126z"/>
		<path class="st0" d="M121.7,114c0,1-0.5,1.5-1.6,1.5c-1.1,0-1.6-0.5-1.6-1.5c0-1,0.5-1.6,1.6-1.6C121.1,112.4,121.7,113,121.7,114
			z M118.6,132.1v-15.6h2.9v15.6H118.6z"/>
		<path class="st0" d="M127.5,126c-0.4-1-0.7-1.9-1-2.8c-0.3-0.9-0.5-1.5-0.6-1.8l-0.2-0.6c0.3,1.3,0.5,3.3,0.5,6.1v5.2h-2.8v-15.6
			h2.9l2.4,6c0.4,1,0.8,2,1.1,2.8s0.5,1.5,0.6,1.8l0.1,0.5c-0.3-1.2-0.5-3.2-0.5-6.1v-5h2.9v15.6h-2.9L127.5,126z"/>
		<path class="st0" d="M144.8,119H142v13.1H139V119h-2.8v-2.5h8.6V119z"/>
		<path class="st0" d="M153,132.1h-7.6v-15.6h7.6v2.5h-4.7v3.9h4.1v2.5h-4.1v4.1h4.7V132.1z"/>
		<path class="st0" d="M157,116.5v15.6h-2.9v-15.6H157z M163.5,116.5l-3.3,7.5l3.6,8h-3.3l-3.3-8l3.2-7.6H163.5z"/>
		<path class="st0" d="M176,116.5v11.9c0,1.2-0.4,2.1-1.2,2.9c-0.8,0.7-1.9,1.1-3.4,1.1s-2.6-0.4-3.3-1.1c-0.8-0.7-1.1-1.7-1.1-2.9
			v-11.9h2.9v11.8c0,1,0.5,1.4,1.6,1.4c1.1,0,1.6-0.5,1.6-1.4v-11.8H176z M170.7,115.3h-2v-1.9h2V115.3z M174.3,115.3h-2v-1.9h2
			V115.3z"/>
		<path class="st0" d="M181.8,126.4h-1.2v5.7h-2.9v-15.6h4.2c1.5,0,2.6,0.4,3.3,1.1c0.8,0.7,1.1,1.7,1.1,2.9v2.1
			c0,1.6-0.6,2.7-1.9,3.4l2.3,6.2h-3.2L181.8,126.4z M180.6,123.9h1.3c1.1,0,1.6-0.5,1.6-1.4v-2c0-0.9-0.5-1.4-1.6-1.4h-1.3V123.9z"
			/>
		<path class="st0" d="M195.5,132.1h-7.6v-15.6h7.6v2.5h-4.7v3.9h4.1v2.5h-4.1v4.1h4.7V132.1z"/>
		<path class="st0" d="M204,119h-2.8v13.1h-2.9V119h-2.8v-2.5h8.6V119z"/>
		<path class="st0" d="M207.7,114c0,1-0.5,1.5-1.6,1.5s-1.6-0.5-1.6-1.5c0-1,0.5-1.6,1.6-1.6S207.7,113,207.7,114z M204.7,132.1
			v-15.6h2.9v15.6H204.7z"/>
		<path class="st0" d="M218.1,126.7v1.7c0,1.2-0.4,2.1-1.2,2.9c-0.8,0.7-1.9,1.1-3.4,1.1c-1.5,0-2.6-0.4-3.3-1.1
			c-0.8-0.7-1.1-1.7-1.1-2.9v-8.2c0-1.2,0.4-2.1,1.1-2.9c0.8-0.7,1.9-1.1,3.3-1.1c1.5,0,2.6,0.4,3.4,1.1s1.2,1.7,1.2,2.9v1.7h-2.9
			v-1.6c0-1-0.5-1.4-1.6-1.4c-1.1,0-1.6,0.5-1.6,1.4v7.9c0,1,0.5,1.4,1.6,1.4c1.1,0,1.6-0.5,1.6-1.4v-1.5H218.1z"/>
		<path class="st0" d="M222.6,114c0,1-0.5,1.5-1.6,1.5s-1.6-0.5-1.6-1.5c0-1,0.5-1.6,1.6-1.6S222.6,113,222.6,114z M219.5,132.1
			v-15.6h2.9v15.6H219.5z"/>
		<path class="st0" d="M229.4,132.1l-3.5-15.6h2.9l1.4,6.7c0.5,2.3,0.8,4.1,0.9,5.6c0.2-1.5,0.5-3.4,0.9-5.6l1.4-6.7h2.9l-3.5,15.6
			H229.4z"/>
		<path class="st0" d="M244.6,132.1h-7.6v-15.6h7.6v2.5h-4.7v3.9h4.1v2.5h-4.1v4.1h4.7V132.1z"/>
		<path class="st0" d="M251,132.1v-4.9l-3.7-10.6h3l1.3,4.2c0.5,1.4,0.8,2.6,0.9,3.5c0.1-0.8,0.4-1.9,0.9-3.4l1.3-4.2h2.9l-3.7,10.6
			v4.9H251z"/>
		<path class="st0" d="M265.7,132.1h-7.6v-15.6h7.6v2.5H261v3.9h4.1v2.5H261v4.1h4.7V132.1z"/>
		<path class="st0" d="M274.2,119h-2.8v13.1h-2.9V119h-2.8v-2.5h8.6V119z"/>
		<path class="st0" d="M277.7,116.5v15.6h-2.9v-15.6H277.7z M284.2,116.5l-3.3,7.5l3.6,8h-3.3l-3.3-8l3.2-7.6H284.2z"/>
		<path class="st0" d="M288.2,114c0,1-0.5,1.5-1.6,1.5c-1.1,0-1.6-0.5-1.6-1.5c0-1,0.5-1.6,1.6-1.6C287.6,112.4,288.2,113,288.2,114
			z M285.1,132.1v-15.6h2.9v15.6H285.1z"/>
		<path class="st0" d="M297,132.1h-7.2v-15.6h2.9v13.1h4.3V132.1z"/>
		<path class="st0" d="M300.7,114c0,1-0.5,1.5-1.6,1.5c-1.1,0-1.6-0.5-1.6-1.5c0-1,0.5-1.6,1.6-1.6C300.1,112.4,300.7,113,300.7,114
			z M297.6,132.1v-15.6h2.9v15.6H297.6z"/>
		<path class="st0" d="M313.9,121.4c0,1.4-0.5,2.4-1.5,2.8c1.1,0.4,1.7,1.3,1.7,2.8v1.3c0,2.5-1.4,3.7-4.2,3.7h-4.8v-15.6h4.6
			c2.8,0,4.2,1.3,4.2,3.8V121.4z M307.9,119v4h1.5c1.1,0,1.6-0.5,1.6-1.4v-1.2c0-0.9-0.5-1.4-1.5-1.4H307.9z M311.2,127
			c0-1-0.5-1.4-1.6-1.4h-1.7v4.1h1.8c1,0,1.5-0.5,1.5-1.4V127z"/>
		<path class="st0" d="M321.4,128.3h-3.2l-0.8,3.8h-2.9l3.3-15.6h3.8l3.3,15.6h-2.9L321.4,128.3z M320.9,125.8l-0.1-0.4
			c-0.6-2.9-0.9-5-1-6.1c-0.1,1.4-0.5,3.4-1,6.1l-0.1,0.4H320.9z"/>
		<path class="st0" d="M328.3,132.1v-4.9l-3.7-10.6h3l1.3,4.2c0.5,1.4,0.8,2.6,0.9,3.5c0.1-0.8,0.4-1.9,0.9-3.4l1.3-4.2h2.9
			l-3.7,10.6v4.9H328.3z"/>
		<path class="st0" d="M338.5,114c0,1-0.5,1.5-1.6,1.5c-1.1,0-1.6-0.5-1.6-1.5c0-1,0.5-1.6,1.6-1.6C338,112.4,338.5,113,338.5,114z
			 M335.4,132.1v-15.6h2.9v15.6H335.4z"/>
		<path class="st0" d="M341.7,124.5c-1.4-0.9-2.2-2.2-2.2-3.8v-0.5c0-1.2,0.4-2.2,1.1-2.9c0.7-0.7,1.8-1,3.3-1c1.5,0,2.6,0.3,3.3,1
			c0.7,0.7,1.1,1.6,1.1,2.9v1.1h-2.9v-1c0-0.9-0.5-1.4-1.5-1.4c-0.5,0-0.9,0.1-1.1,0.4c-0.2,0.2-0.3,0.6-0.3,1v0.3
			c0,0.4,0.1,0.7,0.3,1s0.5,0.6,1,0.9l2.6,1.7c0.7,0.5,1.2,1,1.6,1.6c0.3,0.6,0.5,1.3,0.5,2.1v0.6c0,1.2-0.4,2.1-1.1,2.8
			c-0.8,0.7-1.9,1-3.3,1c-1.5,0-2.6-0.3-3.3-1c-0.7-0.7-1.1-1.6-1.1-2.8v-1.2h2.9v1c0,0.9,0.5,1.4,1.5,1.4c1.1,0,1.6-0.5,1.6-1.4
			V128c0-0.4-0.1-0.7-0.2-1c-0.2-0.3-0.5-0.5-0.9-0.8L341.7,124.5z"/>
		<path class="st0" d="M352.6,114c0,1-0.5,1.5-1.6,1.5c-1.1,0-1.6-0.5-1.6-1.5c0-1,0.5-1.6,1.6-1.6C352,112.4,352.6,113,352.6,114z
			 M349.5,132.1v-15.6h2.9v15.6H349.5z"/>
		<path class="st0" d="M358.7,116.5c1.5,0,2.6,0.4,3.4,1.1s1.1,1.7,1.1,2.9v7.7c0,1.2-0.4,2.1-1.2,2.8s-1.9,1.1-3.4,1.1h-4.5v-15.6
			H358.7z M358.7,129.6c1.1,0,1.6-0.5,1.6-1.4v-7.7c0-0.9-0.5-1.4-1.6-1.4h-1.6v10.6H358.7z"/>
		<path class="st0" d="M367.8,114c0,1-0.5,1.5-1.6,1.5c-1.1,0-1.6-0.5-1.6-1.5c0-1,0.5-1.6,1.6-1.6C367.3,112.4,367.8,113,367.8,114
			z M364.8,132.1v-15.6h2.9v15.6H364.8z"/>
		<path class="st0" d="M373.5,126.4h-1.2v5.7h-2.9v-15.6h4.2c1.5,0,2.6,0.4,3.3,1.1s1.1,1.7,1.1,2.9v2.1c0,1.6-0.6,2.7-1.9,3.4
			l2.3,6.2h-3.2L373.5,126.4z M372.4,123.9h1.3c1.1,0,1.6-0.5,1.6-1.4v-2c0-0.9-0.5-1.4-1.6-1.4h-1.3V123.9z"/>
	</g>
	<path class="st1" d="M21.6,52.7h-6.1v29.7h-15V1.2h22c7.6,0,13.5,1.9,17.4,5.6c4,3.7,6,8.7,6,14.9v10.8c0,8.3-3.3,14.1-9.8,17.5
		l11.8,32.5H31.3L21.6,52.7z M15.5,39.6h7c5.6,0,8.4-2.4,8.4-7.3V21.6c0-4.9-2.8-7.3-8.4-7.3h-7V39.6z"/>
	<path class="st1" d="M96.4,82.4H56.9V1.2h39.5v13.1H71.9v20.5h15.8v13.1H71.9v21.5h24.5V82.4z"/>
	<path class="st2" d="M143.8,42.8c-7.5-4.9-11.2-11.4-11.2-19.6v-2.8c0-6.3,1.9-11.3,5.7-14.9S147.7,0,155.4,0
		c7.6,0,13.4,1.8,17.1,5.4s5.7,8.6,5.7,14.9v5.8H163v-5.3c0-4.8-2.6-7.2-7.7-7.2c-2.8,0-4.8,0.6-6,1.8s-1.7,3-1.7,5.4v1.8
		c0,2,0.5,3.8,1.5,5.3c1,1.5,2.7,3,5.1,4.6l13.7,8.9c3.7,2.4,6.4,5.2,8.1,8.2c1.7,3,2.5,6.7,2.5,11v3c0,6.2-2,11.2-6,14.8
		c-4,3.6-9.8,5.4-17.4,5.4s-13.4-1.8-17.3-5.4c-3.9-3.6-5.9-8.6-5.9-14.8v-6h15.1v5.4c0,4.9,2.7,7.3,8,7.3c5.5,0,8.3-2.4,8.3-7.3
		v-1.7c0-2.1-0.4-3.9-1.3-5.2s-2.5-2.8-4.8-4.3L143.8,42.8z"/>
	<path class="st2" d="M203.6,1.2v81.2h-15.1V1.2H203.6z M237.5,1.2l-26,39.4l27.3,41.9h-17.3l-26-41.6L221,1.2H237.5z"/>
	<path class="st2" d="M285.4,82.4h-39.5V1.2h39.5v13.1h-24.5v20.5h15.8v13.1h-15.8v21.5h24.5V82.4z"/>
	<path class="st2" d="M332.7,82.4h-37.5V1.2h15.1v68.2h22.3V82.4z"/>
	<path class="st2" d="M379.5,82.4H340V1.2h39.5v13.1h-24.5v20.5h15.8v13.1h-15.8v21.5h24.5V82.4z"/>
	<rect x="107.1" y="22.9" class="st2" width="15.1" height="59.5"/>
	<rect x="107.1" y="1.2" class="st2" width="15.1" height="14.6"/>
	<rect x="0.5" y="92.5" class="st1" width="379.1" height="12.9"/>
</g>
</svg>
